<?xml version="1.0" encoding="utf-8"?><svg id="Layer_1" xmlns="http://www.w3.org/2000/svg" width="16" height="16" viewBox="-471 273 16 16"><style>.st0{fill:#fff}</style><path class="st0" d="M-463 274.4h3.2c.8 0 1.2.2 1.5.3.4.1.6.3.9.6s.5.5.6.9c.1.3.2.7.3 1.5v6.4c0 .8-.2 1.2-.3 1.5-.1.4-.3.6-.6.9s-.5.5-.9.6c-.3.1-.7.2-1.5.3h-6.4c-.8 0-1.2-.2-1.5-.3-.4-.1-.6-.3-.9-.6s-.5-.5-.6-.9c-.1-.3-.2-.7-.3-1.5v-6.4c0-.8.2-1.2.3-1.5.1-.4.3-.6.6-.9s.5-.5.9-.6c.3-.1.7-.2 1.5-.3h3.2m0-1.4h-3.3c-.9 0-1.4.2-1.9.4s-1 .5-1.4.9c-.4.4-.7.9-.9 1.4-.2.5-.3 1.1-.4 1.9v6.6c0 .9.2 1.4.4 1.9s.5 1 .9 1.4c.4.4.9.7 1.4.9.5.2 1.1.3 1.9.4h6.6c.9 0 1.4-.2 1.9-.4s1-.5 1.4-.9c.4-.4.7-.9.9-1.4.2-.5.3-1.1.4-1.9v-6.6c0-.9-.2-1.4-.4-1.9s-.5-1-.9-1.4c-.4-.4-.9-.7-1.4-.9-.5-.2-1.1-.3-1.9-.4h-3.3z"/><path class="st0" d="M-463 276.9c-2.3 0-4.1 1.8-4.1 4.1s1.8 4.1 4.1 4.1 4.1-1.8 4.1-4.1-1.8-4.1-4.1-4.1zm0 6.8c-1.5 0-2.7-1.2-2.7-2.7s1.2-2.7 2.7-2.7 2.7 1.2 2.7 2.7-1.2 2.7-2.7 2.7z"/><circle class="st0" cx="-458.7" cy="276.7" r="1"/></svg>