<?xml version="1.0" encoding="utf-8"?>
<!-- Generator: Adobe Illustrator 19.1.0, SVG Export Plug-In . SVG Version: 6.00 Build 0)  -->
<svg version="1.1" xmlns="http://www.w3.org/2000/svg" xmlns:xlink="http://www.w3.org/1999/xlink" x="0px" y="0px" width="16px"
	 height="16px" viewBox="-41 43 16 16" style="enable-background:new -41 43 16 16;" xml:space="preserve">
<style type="text/css">
	.st0{fill:#FFFFFF;}
	.st1{fill:none;}
</style>
<g id="bold">
	<g>
		<path class="st0" d="M-41,43.4h4l4,5.9l4-5.9h4v15.3h-4.9v-5.5l-3.1,4.6l-3.1-4.6v5.5H-41V43.4z M-38.1,56.8V46.3l5.1,7.5l5.1-7.5
			v10.5h0.6V45.2h-0.6l-5.1,7.5l-5.1-7.5h-0.6v11.6H-38.1z"/>
	</g>
	<polygon class="st1" points="-38.1,56.8 -38.1,46.3 -33,53.8 -27.9,46.3 -27.9,56.8 -27.3,56.8 -27.3,45.2 -27.9,45.2 -33,52.7 
		-38.1,45.2 -38.7,45.2 -38.7,56.8 	"/>
</g>
<g id="thin">
	<polygon class="st1" points="-38.1,56.8 -38.1,46.3 -33,53.8 -27.9,46.3 -27.9,56.8 -27.3,56.8 -27.3,45.2 -27.9,45.2 -33,52.7 
		-38.1,45.2 -38.7,45.2 -38.7,56.8 	"/>
</g>
</svg>
